<?xml version="1.0" encoding="utf-8"?>

<!DOCTYPE svg PUBLIC "-//W3C//DTD SVG 1.0//EN" "http://www.w3.org/TR/2001/REC-SVG-20010904/DTD/svg10.dtd">
<!-- Uploaded to: SVG Repo, www.svgrepo.com, Generator: SVG Repo Mixer Tools -->
<svg version="1.0" id="Layer_1" xmlns="http://www.w3.org/2000/svg" xmlns:xlink="http://www.w3.org/1999/xlink" 
	 width="800px" height="800px" viewBox="0 0 64 64" enable-background="new 0 0 64 64" xml:space="preserve">
<g>
	<path fill="#394240" d="M60,8H4c-2.211,0-4,1.789-4,4v40c0,2.211,1.789,4,4,4h56c2.211,0,4-1.789,4-4V12C64,9.789,62.211,8,60,8z
		 M56,16v0.266L32,34.934L8,16.266V16H56z M8,48V26.398l21.543,16.758C30.266,43.719,31.133,44,32,44s1.734-0.281,2.457-0.844
		L56,26.398V48H8z"/>
	<g>
		<polygon fill="#F9EBB2" points="8,16 8,16.266 32,34.934 56,16.266 56,16 		"/>
		<path fill="#F9EBB2" d="M32,44c-0.867,0-1.734-0.281-2.457-0.844L8,26.398V48h48V26.398L34.457,43.156
			C33.734,43.719,32.867,44,32,44z"/>
	</g>
	<path opacity="0.15" fill="#231F20" d="M8,48V26.398l21.543,16.758C30.266,43.719,31.133,44,32,44s1.734-0.281,2.457-0.844
		L56,26.398V48H8z"/>
</g>
</svg>