<?xml version="1.0" encoding="iso-8859-1"?>
<!-- Uploaded to: SVG Repo, www.svgrepo.com, Generator: SVG Repo Mixer Tools -->
<svg version="1.1" id="Layer_1" xmlns="http://www.w3.org/2000/svg" xmlns:xlink="http://www.w3.org/1999/xlink" 
	 viewBox="0 0 512 512" xml:space="preserve">
<path style="fill:#6A82A1;" d="M255.965,512c-34.758,0-63.035-28.278-63.035-63.034v-22.049c0-9.864,7.997-17.86,17.86-17.86h90.349
	c9.864,0,17.86,7.997,17.86,17.86v22.049C318.999,483.724,290.721,512,255.965,512z"/>
<path style="fill:#36495E;" d="M301.139,409.057h-45.174V512c34.756,0,63.034-28.278,63.034-63.034v-22.049
	C318.999,417.053,311.003,409.057,301.139,409.057z"/>
<path style="fill:#FFDA79;" d="M253.445,0.02c166.647-2.341,240.069,206.662,114.152,310.088v88.242
	c0,25.6-20.828,46.428-46.428,46.428H190.759c-25.6,0-46.428-20.828-46.428-46.428v-88.244
	C19.859,207.836,90.356,2.316,253.445,0.02"/>
<path style="fill:#FFD155;" d="M255.965,0.009v444.769h65.206c25.6,0,46.428-20.826,46.428-46.428v-88.242
	C492.879,207.205,420.827-0.2,255.965,0.009z"/>
<path style="fill:#F1F2F2;" d="M144.331,359.719v38.632c0,25.601,20.828,46.428,46.428,46.428H321.17
	c25.6,0,46.428-20.826,46.428-46.428v-38.632H144.331z"/>
<path style="fill:#E6E7E8;" d="M255.965,359.719v85.06h65.206c25.6,0,46.428-20.826,46.428-46.428v-38.632L255.965,359.719
	L255.965,359.719z"/>
<path style="fill:#FFD155;" d="M310.676,158.919c-8.543-4.932-19.467-2.005-24.397,6.537l-30.314,52.507l-30.315-52.507
	c-4.931-8.542-15.855-11.469-24.397-6.537c-8.542,4.933-11.469,15.855-6.537,24.397l43.389,75.153v101.245
	c0,9.864,7.997,17.86,17.86,17.86s17.86-7.997,17.86-17.86V258.469l43.389-75.153C322.146,174.774,319.219,163.851,310.676,158.919z
	"/>
<path style="fill:#FFC72D;" d="M310.676,158.919c-8.543-4.932-19.467-2.005-24.397,6.537l-30.314,52.507v159.611
	c9.864,0,17.86-7.997,17.86-17.86V258.469l43.389-75.153C322.146,174.774,319.219,163.851,310.676,158.919z"/>
<rect x="144.336" y="341.861" style="fill:#6A82A1;" width="223.267" height="35.721"/>
<rect x="255.964" y="341.861" style="fill:#36495E;" width="111.628" height="35.721"/>
</svg>